# xmcd
#
# Track frame offsets:
#	150
#	20259
#	37358
#	57452
#	71563
#	84311
#
# Disc length: 1307 seconds
# Revision: 0
# Processed by: cddbd v1.5.2PL0 Copyright (c) Steve Scherf et al.
# Submitted via: dBpowerAMP V12.0
#
DISCID=4d051906
DTITLE=Daron Little (featuring Butch Hause) - Dos Amigos
DYEAR=2014
DGENRE=Country
TTITLE0=The Outside Circle
TTITLE1=Cowboy Standard Time
TTITLE2=Dos amigos
TTITLE3=Where The Sagebrush Touches The Sky
TTITLE4=Good Case Of Gone
TTITLE5=This Old horse
EXTD=
EXTT0=
EXTT1=
EXTT2=
EXTT3=
EXTT4=
EXTT5=
PLAYORDER=
